<svg width="101" height="95" viewBox="0 0 101 95" fill="none" xmlns="http://www.w3.org/2000/svg">
<path fill-rule="evenodd" clip-rule="evenodd" d="M50.5876 94.4775C23.1098 94.4775 0.835938 73.4457 0.835938 47.5C0.835938 21.5543 23.1098 0.522461 50.5876 0.522461C78.0654 0.522461 100.339 21.5543 100.339 47.5C100.339 73.4457 78.0654 94.4775 50.5876 94.4775ZM50.5876 85.082C61.1436 85.082 71.2672 81.1225 78.7314 74.0745C86.1956 67.0265 90.3889 57.4674 90.3889 47.5C90.3889 37.5326 86.1956 27.9735 78.7314 20.9255C71.2672 13.8775 61.1436 9.91797 50.5876 9.91797C40.0316 9.91797 29.908 13.8775 22.4438 20.9255C14.9796 27.9735 10.7863 37.5326 10.7863 47.5C10.7863 57.4674 14.9796 67.0265 22.4438 74.0745C29.908 81.1225 40.0316 85.082 50.5876 85.082ZM45.6124 66.291H55.5628V75.6865H45.6124V66.291ZM45.6124 56.9331C45.6124 56.9331 55.5628 56.8955 55.5628 56.9331C55.5628 52.2259 70.4883 47.5 70.4883 38.1045C70.4883 27.7225 61.6673 19.3135 50.6324 19.3135C48.0152 19.3079 45.4226 19.7899 43.003 20.7317C40.5833 21.6735 38.3842 23.0568 36.5315 24.8023C34.6788 26.5477 33.209 28.6211 32.2061 30.9037C31.2031 33.1863 30.6869 35.6333 30.6869 38.1045H40.6373C40.6373 32.937 45.1149 28.709 50.5876 28.709C56.0603 28.709 60.5379 32.937 60.5379 38.1045C60.5379 42.3325 45.6124 49.2241 45.6124 56.9331Z" fill="#9E005D"/>
<path fill-rule="evenodd" clip-rule="evenodd" d="M50.5876 94.4775C23.1098 94.4775 0.835938 73.4457 0.835938 47.5C0.835938 21.5543 23.1098 0.522461 50.5876 0.522461C78.0654 0.522461 100.339 21.5543 100.339 47.5C100.339 73.4457 78.0654 94.4775 50.5876 94.4775ZM50.5876 85.082C61.1436 85.082 71.2672 81.1225 78.7314 74.0745C86.1956 67.0265 90.3889 57.4674 90.3889 47.5C90.3889 37.5326 86.1956 27.9735 78.7314 20.9255C71.2672 13.8775 61.1436 9.91797 50.5876 9.91797C40.0316 9.91797 29.908 13.8775 22.4438 20.9255C14.9796 27.9735 10.7863 37.5326 10.7863 47.5C10.7863 57.4674 14.9796 67.0265 22.4438 74.0745C29.908 81.1225 40.0316 85.082 50.5876 85.082ZM45.6124 66.291H55.5628V75.6865H45.6124V66.291ZM45.6124 56.9331C45.6124 56.9331 55.5628 56.8955 55.5628 56.9331C55.5628 52.2259 70.4883 47.5 70.4883 38.1045C70.4883 27.7225 61.6673 19.3135 50.6324 19.3135C48.0152 19.3079 45.4226 19.7899 43.003 20.7317C40.5833 21.6735 38.3842 23.0568 36.5315 24.8023C34.6788 26.5477 33.209 28.6211 32.2061 30.9037C31.2031 33.1863 30.6869 35.6333 30.6869 38.1045H40.6373C40.6373 32.937 45.1149 28.709 50.5876 28.709C56.0603 28.709 60.5379 32.937 60.5379 38.1045C60.5379 42.3325 45.6124 49.2241 45.6124 56.9331Z" fill="black" fill-opacity="0.2"/>
</svg>
