<svg width="105" height="99" viewBox="0 0 105 99" fill="none" xmlns="http://www.w3.org/2000/svg">
<path d="M50.1089 0.173828C77.5866 0.173828 99.8604 21.2056 99.8604 47.1512C99.8604 49.1571 99.7261 51.1302 99.4723 53.0703C98.517 48.9155 95.8962 45.2709 92.1588 42.8997C90.9879 32.7494 85.7441 23.4081 77.5049 16.7954C69.2657 10.1828 58.6571 6.80112 47.8591 7.34544C37.0612 7.88976 26.8941 12.3187 19.4474 19.722C12.0007 27.1254 7.83989 36.9408 7.82014 47.1512C7.81942 52.7919 9.08434 58.3687 11.5316 63.5143C13.9789 68.66 17.5529 73.2576 22.0183 77.0045C26.4837 80.7513 31.7392 83.5623 37.4385 85.2524C43.1379 86.9424 49.1518 87.4731 55.084 86.8095V91.7797C55.084 92.4938 55.1537 93.1984 55.2831 93.8796C53.564 94.0464 51.837 94.1295 50.1089 94.1286C22.6312 94.1286 0.357422 73.0968 0.357422 47.1512C0.357422 21.2056 22.6312 0.173828 50.1089 0.173828ZM92.333 49.4155C90.7541 47.463 88.5665 46.0271 86.0781 45.31C83.5898 44.5929 80.9259 44.6306 78.4614 45.4179C75.9969 46.2051 73.856 47.7023 72.3398 49.6987C70.8236 51.695 70.0086 54.09 70.0095 56.5467V61.2444H67.5219C65.5427 61.2444 63.6445 61.9868 62.245 63.3083C60.8454 64.6298 60.0592 66.4221 60.0592 68.291V91.7797C60.0592 93.6486 60.8454 95.4409 62.245 96.7624C63.6445 98.0839 65.5427 98.8263 67.5219 98.8263H97.3728C99.352 98.8263 101.25 98.0839 102.65 96.7624C104.049 95.4409 104.836 93.6486 104.836 91.7797V68.291C104.836 66.4221 104.049 64.6298 102.65 63.3083C101.25 61.9868 99.352 61.2444 97.3728 61.2444H94.8852V56.5467C94.8898 53.969 93.9926 51.4621 92.333 49.4155ZM80.4921 84.3573C79.8911 84.1145 79.3465 83.7623 78.8896 83.3209C78.4326 82.8794 78.0722 82.3573 77.829 81.7843C77.5858 81.2113 77.4644 80.5987 77.4719 79.9814C77.4794 79.3642 77.6156 78.7544 77.8727 78.1868C78.1298 77.6192 78.5028 77.105 78.9703 76.6736C79.4379 76.2421 79.9908 75.9018 80.5976 75.6722C81.2045 75.4425 81.8532 75.3279 82.507 75.335C83.1607 75.3421 83.8065 75.4707 84.4076 75.7134C85.6215 76.2037 86.5795 77.1292 87.0707 78.2864C87.5619 79.4436 87.5462 80.7377 87.027 81.8839C86.5078 83.0302 85.5276 83.9347 84.302 84.3985C83.0765 84.8624 81.7061 84.8475 80.4921 84.3573ZM77.4722 56.5467C77.4722 55.3008 77.9964 54.1059 78.9294 53.2249C79.8624 52.3439 81.1279 51.8489 82.4474 51.8489C83.7669 51.8489 85.0323 52.3439 85.9653 53.2249C86.8983 54.1059 87.4225 55.3008 87.4225 56.5467V61.2444H77.4722V56.5467ZM43.89 53.9159L66.1289 32.9171C66.7955 32.2925 67.6871 31.9282 68.6257 31.897C69.5643 31.8658 70.4808 32.1699 71.1923 32.7487C71.9039 33.3275 72.3581 34.1383 72.4644 35.0194C72.5707 35.9005 72.3212 36.787 71.7657 37.502L71.4025 37.8967L46.5268 61.3853C45.895 61.982 45.0574 62.3448 44.1663 62.4078C43.2752 62.4707 42.3898 62.2296 41.671 61.7283L41.2531 61.3853L28.8153 49.641C28.1538 49.0115 27.768 48.1696 27.735 47.2834C27.7019 46.3972 28.024 45.5317 28.637 44.8599C29.2499 44.188 30.1086 43.7591 31.0417 43.6587C31.9749 43.5584 32.9137 43.794 33.671 44.3185L34.0889 44.6614L43.89 53.9159Z" fill="#9E005D"/>
<path d="M50.1089 0.173828C77.5866 0.173828 99.8604 21.2056 99.8604 47.1512C99.8604 49.1571 99.7261 51.1302 99.4723 53.0703C98.517 48.9155 95.8962 45.2709 92.1588 42.8997C90.9879 32.7494 85.7441 23.4081 77.5049 16.7954C69.2657 10.1828 58.6571 6.80112 47.8591 7.34544C37.0612 7.88976 26.8941 12.3187 19.4474 19.722C12.0007 27.1254 7.83989 36.9408 7.82014 47.1512C7.81942 52.7919 9.08434 58.3687 11.5316 63.5143C13.9789 68.66 17.5529 73.2576 22.0183 77.0045C26.4837 80.7513 31.7392 83.5623 37.4385 85.2524C43.1379 86.9424 49.1518 87.4731 55.084 86.8095V91.7797C55.084 92.4938 55.1537 93.1984 55.2831 93.8796C53.564 94.0464 51.837 94.1295 50.1089 94.1286C22.6312 94.1286 0.357422 73.0968 0.357422 47.1512C0.357422 21.2056 22.6312 0.173828 50.1089 0.173828ZM92.333 49.4155C90.7541 47.463 88.5665 46.0271 86.0781 45.31C83.5898 44.5929 80.9259 44.6306 78.4614 45.4179C75.9969 46.2051 73.856 47.7023 72.3398 49.6987C70.8236 51.695 70.0086 54.09 70.0095 56.5467V61.2444H67.5219C65.5427 61.2444 63.6445 61.9868 62.245 63.3083C60.8454 64.6298 60.0592 66.4221 60.0592 68.291V91.7797C60.0592 93.6486 60.8454 95.4409 62.245 96.7624C63.6445 98.0839 65.5427 98.8263 67.5219 98.8263H97.3728C99.352 98.8263 101.25 98.0839 102.65 96.7624C104.049 95.4409 104.836 93.6486 104.836 91.7797V68.291C104.836 66.4221 104.049 64.6298 102.65 63.3083C101.25 61.9868 99.352 61.2444 97.3728 61.2444H94.8852V56.5467C94.8898 53.969 93.9926 51.4621 92.333 49.4155ZM80.4921 84.3573C79.8911 84.1145 79.3465 83.7623 78.8896 83.3209C78.4326 82.8794 78.0722 82.3573 77.829 81.7843C77.5858 81.2113 77.4644 80.5987 77.4719 79.9814C77.4794 79.3642 77.6156 78.7544 77.8727 78.1868C78.1298 77.6192 78.5028 77.105 78.9703 76.6736C79.4379 76.2421 79.9908 75.9018 80.5976 75.6722C81.2045 75.4425 81.8532 75.3279 82.507 75.335C83.1607 75.3421 83.8065 75.4707 84.4076 75.7134C85.6215 76.2037 86.5795 77.1292 87.0707 78.2864C87.5619 79.4436 87.5462 80.7377 87.027 81.8839C86.5078 83.0302 85.5276 83.9347 84.302 84.3985C83.0765 84.8624 81.7061 84.8475 80.4921 84.3573ZM77.4722 56.5467C77.4722 55.3008 77.9964 54.1059 78.9294 53.2249C79.8624 52.3439 81.1279 51.8489 82.4474 51.8489C83.7669 51.8489 85.0323 52.3439 85.9653 53.2249C86.8983 54.1059 87.4225 55.3008 87.4225 56.5467V61.2444H77.4722V56.5467ZM43.89 53.9159L66.1289 32.9171C66.7955 32.2925 67.6871 31.9282 68.6257 31.897C69.5643 31.8658 70.4808 32.1699 71.1923 32.7487C71.9039 33.3275 72.3581 34.1383 72.4644 35.0194C72.5707 35.9005 72.3212 36.787 71.7657 37.502L71.4025 37.8967L46.5268 61.3853C45.895 61.982 45.0574 62.3448 44.1663 62.4078C43.2752 62.4707 42.3898 62.2296 41.671 61.7283L41.2531 61.3853L28.8153 49.641C28.1538 49.0115 27.768 48.1696 27.735 47.2834C27.7019 46.3972 28.024 45.5317 28.637 44.8599C29.2499 44.188 30.1086 43.7591 31.0417 43.6587C31.9749 43.5584 32.9137 43.794 33.671 44.3185L34.0889 44.6614L43.89 53.9159Z" fill="black" fill-opacity="0.2"/>
</svg>
