<svg width="112" height="77" viewBox="0 0 112 77" fill="none" xmlns="http://www.w3.org/2000/svg">
<path d="M0.661133 17.36H49.1688L52.9002 24.4067H4.39249L0.661133 17.36ZM5.63628 31.4533H54.144L57.8753 38.4999H9.36764L5.63628 31.4533ZM86.4824 69.0351C90.6118 69.0351 93.9452 65.8877 93.9452 61.9885C93.9452 58.0894 90.6118 54.9419 86.4824 54.9419C82.3531 54.9419 79.0197 58.0894 79.0197 61.9885C79.0197 65.8877 82.3531 69.0351 86.4824 69.0351ZM93.9452 26.7555H81.5073V38.4999H103.696L93.9452 26.7555ZM36.731 69.0351C40.8603 69.0351 44.1937 65.8877 44.1937 61.9885C44.1937 58.0894 40.8603 54.9419 36.731 54.9419C32.6016 54.9419 29.2682 58.0894 29.2682 61.9885C29.2682 65.8877 32.6016 69.0351 36.731 69.0351ZM96.4327 19.7089L111.358 38.4999V61.9885H101.408C101.408 69.7868 94.7412 76.0818 86.4824 76.0818C78.2237 76.0818 71.557 69.7868 71.557 61.9885H51.6564C51.6564 69.7868 44.94 76.0818 36.731 76.0818C28.4722 76.0818 21.8055 69.7868 21.8055 61.9885H11.8552V45.5465H21.8055V52.5931H25.5866C28.323 49.7275 32.3031 47.8953 36.731 47.8953C41.1588 47.8953 45.139 49.7275 47.8753 52.5931H71.557V10.3134H11.8552C11.8552 5.09895 16.2831 0.917969 21.8055 0.917969H81.5073V19.7089H96.4327Z" fill="#9E005D"/>
<path d="M0.661133 17.36H49.1688L52.9002 24.4067H4.39249L0.661133 17.36ZM5.63628 31.4533H54.144L57.8753 38.4999H9.36764L5.63628 31.4533ZM86.4824 69.0351C90.6118 69.0351 93.9452 65.8877 93.9452 61.9885C93.9452 58.0894 90.6118 54.9419 86.4824 54.9419C82.3531 54.9419 79.0197 58.0894 79.0197 61.9885C79.0197 65.8877 82.3531 69.0351 86.4824 69.0351ZM93.9452 26.7555H81.5073V38.4999H103.696L93.9452 26.7555ZM36.731 69.0351C40.8603 69.0351 44.1937 65.8877 44.1937 61.9885C44.1937 58.0894 40.8603 54.9419 36.731 54.9419C32.6016 54.9419 29.2682 58.0894 29.2682 61.9885C29.2682 65.8877 32.6016 69.0351 36.731 69.0351ZM96.4327 19.7089L111.358 38.4999V61.9885H101.408C101.408 69.7868 94.7412 76.0818 86.4824 76.0818C78.2237 76.0818 71.557 69.7868 71.557 61.9885H51.6564C51.6564 69.7868 44.94 76.0818 36.731 76.0818C28.4722 76.0818 21.8055 69.7868 21.8055 61.9885H11.8552V45.5465H21.8055V52.5931H25.5866C28.323 49.7275 32.3031 47.8953 36.731 47.8953C41.1588 47.8953 45.139 49.7275 47.8753 52.5931H71.557V10.3134H11.8552C11.8552 5.09895 16.2831 0.917969 21.8055 0.917969H81.5073V19.7089H96.4327Z" fill="black" fill-opacity="0.2"/>
</svg>
